<?xml version="1.0" encoding="UTF-8" standalone="no"?>
<!DOCTYPE svg PUBLIC "-//W3C//DTD SVG 1.1//EN" "http://www.w3.org/Graphics/SVG/1.1/DTD/svg11.dtd">
<!--Generated by Intaglio, www.PurgatoryDesign.com-->
<svg version="1.1" viewBox="0,0,32,32" width="32" height="32" xmlns="http://www.w3.org/2000/svg" xmlns:xlink="http://www.w3.org/1999/xlink"><path fill="#cc4dcc" d="M16.0521,0.489563 L31.8053,0.489563 L31.8053,16.2429 L16.0521,16.2429 L16.0521,0.489563 Z"/><path fill="#19cc19" d="M0.298756,0.489563 L16.0521,0.489563 L16.0521,16.2429 L0.298756,16.2429 L0.298756,0.489563 Z"/><path fill="#1980e6" d="M0.298756,16.2429 L16.0521,16.2429 L16.0521,31.9962 L0.298756,31.9962 L0.298756,16.2429 Z"/><path fill="#fff" d="M16.0521,16.2429 L31.8053,16.2429 L31.8053,31.9962 L16.0521,31.9962 L16.0521,16.2429 Z"/><path d="M5.70128,13.9912 Q5.65734,14.3867,5.49913,14.5405 Q5.34093,14.6943,4.99816,14.6943 Q4.62902,14.6943,4.44884,14.479 Q4.26866,14.2637,4.2423,13.7803 L4.12804,11.7412 L4.12804,11.583 Q4.12804,11.1611,4.29064,10.9854 Q4.45324,10.8096,4.83116,10.8096 Q5.35851,10.8096,5.58702,11.5654 Q5.69249,11.9434,5.78917,12.1367 Q6.09679,12.752,6.76036,13.0859 Q7.42394,13.4199,8.34679,13.4199 Q9.48058,13.4199,10.1881,12.8838 Q10.8956,12.3477,10.8956,11.5127 Q10.8956,10.8184,10.4606,10.3965 Q10.0255,9.97461,9.19054,9.85156 L7.88976,9.67578 Q6.07042,9.4209,5.23546,8.71777 Q4.4005,8.01465,4.4005,6.74023 Q4.4005,5.39551,5.51232,4.48145 Q6.62413,3.56738,8.28527,3.56738 Q8.76866,3.56738,9.3048,3.69482 Q9.84093,3.82227,10.5177,4.09473 Q10.5353,3.83984,10.6583,3.74316 Q10.7814,3.64648,11.0802,3.64648 Q11.4669,3.64648,11.6163,3.76074 Q11.7657,3.875,11.8009,4.30566 L11.9239,6.14258 L11.9239,6.23047 Q11.9239,6.53809,11.7482,6.70947 Q11.5724,6.88086,11.256,6.88086 Q10.7901,6.88086,10.5353,6.23047 Q10.4122,5.86133,10.2892,5.67676 Q9.99913,5.2373,9.45421,5 Q8.90929,4.7627,8.21495,4.7627 Q7.15148,4.7627,6.4879,5.29004 Q5.82433,5.81738,5.82433,6.66992 Q5.82433,7.33789,6.32091,7.72461 Q6.81749,8.11133,7.83702,8.25195 L9.24327,8.42773 Q10.7726,8.62988,11.546,9.36377 Q12.3194,10.0977,12.3194,11.3457 Q12.3194,12.8223,11.2208,13.7144 Q10.1222,14.6064,8.28527,14.6064 Q7.65245,14.6064,7.02843,14.457 Q6.40441,14.3076,5.70128,13.9912 Z"/><path d="M19.9209,14.2944 L19.5078,14.2944 Q19.1914,14.2944,19.0288,14.1362 Q18.8662,13.978,18.8662,13.6616 Q18.8662,13.3101,19.0552,13.1826 Q19.2441,13.0552,19.9209,13.0552 L20.4834,13.0552 L20.4834,5.13623 L19.9209,5.13623 Q19.2617,5.13623,19.064,5 Q18.8662,4.86377,18.8662,4.50342 Q18.8662,4.17822,19.0288,4.02441 Q19.1914,3.87061,19.5254,3.87061 L19.9209,3.87061 L27.1807,3.87061 Q27.4795,3.87061,27.6333,4.05078 Q27.7871,4.23096,27.7871,4.57373 L27.7871,6.64795 Q27.7871,7.10498,27.6553,7.28076 Q27.5234,7.45654,27.1807,7.45654 Q26.8203,7.45654,26.6841,7.26318 Q26.5478,7.06982,26.5478,6.39307 L26.5478,5.13623 L21.8721,5.13623 L21.8721,8.09814 L24.1748,8.09814 L24.1748,7.63232 Q24.1748,7.15772,24.3022,6.97314 Q24.4297,6.78857,24.7461,6.78857 Q25.0537,6.78857,25.1724,6.98633 Q25.291,7.18408,25.291,7.83447 L25.291,9.46924 Q25.291,10.1284,25.168,10.313 Q25.0449,10.4976,24.7285,10.4976 Q24.4121,10.4976,24.2934,10.2866 Q24.1748,10.0757,24.1748,9.46924 L24.1748,9.16162 L21.8721,9.16162 L21.8721,13.0552 L26.5478,13.0552 L26.5478,11.6313 Q26.5478,10.9546,26.6841,10.7612 Q26.8203,10.5679,27.1807,10.5679 Q27.5146,10.5679,27.6509,10.748 Q27.7871,10.9282,27.7871,11.4292 L27.7871,13.644 Q27.7871,13.9604,27.6289,14.1274 Q27.4707,14.2944,27.1807,14.2944 Z"/><path d="M6.36486,25.5478 L9.95958,25.5478 L8.06993,20.8896 Z M6.8131,20.8896 L5.5299,20.8896 Q4.99376,20.8896,4.77843,20.7446 Q4.5631,20.5996,4.5631,20.2568 Q4.5631,19.8964,4.75206,19.7602 Q4.94103,19.624,5.78478,19.624 L8.28966,19.624 Q8.77306,19.624,8.94445,19.7514 Q9.11583,19.8789,9.25646,20.2216 L12.693,28.8085 L12.8424,28.8085 Q13.317,28.8085,13.4928,28.9404 Q13.6686,29.0722,13.6686,29.415 Q13.6686,29.7753,13.5016,29.9116 Q13.3346,30.0478,12.8776,30.0478 L10.4869,30.0478 Q9.81896,30.0478,9.62999,29.9116 Q9.44103,29.7753,9.44103,29.415 Q9.44103,29.081,9.64757,28.9448 Q9.85411,28.8085,10.4254,28.8085 L11.2428,28.8085 L10.3902,26.7167 L5.9254,26.7167 L5.16954,28.8085 L6.02208,28.8085 Q6.60216,28.8085,6.8131,28.9448 Q7.02404,29.081,7.02404,29.415 Q7.02404,29.7753,6.83507,29.9116 Q6.64611,30.0478,6.0045,30.0478 L3.69298,30.0478 Q3.13048,30.0478,2.94591,29.9116 Q2.76134,29.7753,2.76134,29.415 Q2.76134,29.0722,2.94591,28.9404 Q3.13048,28.8085,3.65782,28.8085 L3.82482,28.8085 Z"/><path d="M20.2637,25.6928 Q20.0879,25.6928,19.9868,25.583 Q19.8857,25.4731,19.8857,25.2797 L19.8857,24.3481 Q19.8857,24.1811,19.9868,24.0844 Q20.0879,23.9877,20.2637,23.9877 L27.5498,23.9877 Q27.7519,23.9877,27.8662,24.0844 Q27.9805,24.1811,27.9805,24.3481 L27.9805,25.2797 Q27.9805,25.4379,27.8486,25.5654 Q27.7168,25.6928,27.5498,25.6928 Z"/></svg>
